# xmcd
#
# Track frame offsets: 
#        150
#        16881
#        37646
#        54442
#        73340
#        90806
#        107455
#        125234
#        142367
#        158491
#        180375
#        199994
#        216443
#        236009
#        251549
#        269359
#        286264
#        302382
#        318312
#        334688
#
# Disc length: 4721 seconds
#
# Revision: 2
# Processed by: cddbd v1.5.2PL0 Copyright (c) Steve Scherf et al.
# Submitted via: ExactAudioCopy v1.0b6
#
DISCID=18126f14
DTITLE=Various Artist - Beautiful Ballads
DYEAR=2003
DGENRE=Ballad
TTITLE0=Vacuum - Mind Your Mind
TTITLE1=Mustafa Sandal - Fikra
TTITLE2=Sugababes - Caught In A Moment
TTITLE3=Fource - I'll Be The One (For You) (Single mix)
TTITLE4=Tanya - Woman In Love
TTITLE5=Kristian Leontiou - Story Of My Life
TTITLE6=Before Four - I'll Be There (radio remix)
TTITLE7=Sandy - Tell Me (radio video edit)
TTITLE8=Cosmo Klein - Baby Don't Cry (video edit)
TTITLE9=Clea - Stuck In The Middle
TTITLE10=Eros Ramazzotti - Ti Vorrei Rivivere
TTITLE11=E-Type - Lost And Goodbye
TTITLE12=Despina Vandi - Ola Odigoun Se Sena (Everything Lesds To You)
TTITLE13=Scorpions - Maybe I Maybe You
TTITLE14=Tiziano Ferro - No Me Lo Puedo Explicar
TTITLE15=Dido - This Land is Mine
TTITLE16=Jeanette - No Eternity
TTITLE17=Fiest - Evening
TTITLE18=Vanilla Ninja - When The Indians Cry
TTITLE19=James Horner - Remember Me
EXTD=
EXTT0=
EXTT1=
EXTT2=
EXTT3=
EXTT4=
EXTT5=
EXTT6=
EXTT7=
EXTT8=
EXTT9=
EXTT10=
EXTT11=
EXTT12=
EXTT13=
EXTT14=
EXTT15=
EXTT16=
EXTT17=
EXTT18=
EXTT19=
PLAYORDER=
